<svg xmlns="http://www.w3.org/2000/svg" viewBox="0 0 41.2 47.55"><defs><style>.cls-1,.cls-3{fill:none;}.cls-1,.cls-2,.cls-3{stroke:#fff;}.cls-1,.cls-2{stroke-miterlimit:10;}.cls-1{stroke-width:4.85px;}.cls-2{fill:#fff;}.cls-2,.cls-3{stroke-width:1.62px;}.cls-3{stroke-linecap:round;stroke-linejoin:round;}</style></defs><title>Asset 2</title><g id="Layer_2" data-name="Layer 2"><g id="Layer_2-2" data-name="Layer 2"><path class="cls-1" d="M38.78,20.6A18.18,18.18,0,1,1,20.6,2.43,18.2,18.2,0,0,1,38.78,20.6Z"/><path class="cls-2" d="M26.93,37.16l7,9a1.62,1.62,0,0,0,2.14.35l2.18-1.42a1.61,1.61,0,0,0,.26-2.49C36,40,30.92,34.6,33,33.41s1.07-2.23,1.07-2.23"/><path class="cls-3" d="M16.73,8.11a18.46,18.46,0,0,0-4.67,3,20.05,20.05,0,0,0-4.39,5.67"/></g></g></svg>